<svg width="24" height="24" viewBox="0 0 24 24" fill="none" xmlns="http://www.w3.org/2000/svg">
<path fill-rule="evenodd" clip-rule="evenodd" d="M1.5 0.5C0.947715 0.5 0.5 0.947715 0.5 1.5C0.5 2.05228 0.947715 2.5 1.5 2.5H2.96014L4.65139 9.60325L5.77561 14.4749C5.79641 14.565 5.82904 14.6499 5.87161 14.7282L6.52719 17.4816C6.63445 17.9321 7.03694 18.25 7.5 18.25C7.67955 18.1151 7.87775 18.0038 8.09012 17.9208C8.12167 17.9084 8.15352 17.8967 8.18568 17.8856C8.18939 17.8844 8.1931 17.8831 8.19682 17.8818C8.21784 17.8747 8.23898 17.8678 8.26025 17.8613C8.33736 17.8374 8.41606 17.8172 8.49616 17.8008C8.65891 17.7675 8.82741 17.75 9 17.75C9.56291 17.75 10.0824 17.936 10.5002 18.25H17.2498C17.6676 17.936 18.1871 17.75 18.75 17.75C18.9419 17.75 19.1287 17.7716 19.3082 17.8126C19.395 17.8323 19.48 17.8566 19.563 17.8852C19.8122 17.9709 20.0434 18.0948 20.25 18.25C20.8023 18.25 21.25 17.8023 21.25 17.25C21.25 16.6977 20.8023 16.25 20.25 16.25H8.28986L8.05176 15.25H20.25C20.7157 15.25 21.1197 14.9286 21.2244 14.4749L23.4744 4.72486C23.5429 4.42792 23.4723 4.11594 23.2826 3.87745C23.0929 3.63896 22.8047 3.5 22.5 3.5H5.25414L4.72281 1.26838C4.61555 0.817911 4.21306 0.5 3.75 0.5H1.5ZM7.57557 13.25H19.4545L21.2429 5.5H5.75705L6.59861 9.14675L7.57557 13.25Z" fill="black"/>
<path fill-rule="evenodd" clip-rule="evenodd" d="M9 22.75C10.3807 22.75 11.5 21.6307 11.5 20.25C11.5 19.4322 11.1073 18.7061 10.5002 18.25H7.5C7.45344 18.285 7.4079 18.3216 7.36394 18.3596C6.83475 18.818 6.5 19.4949 6.5 20.25C6.5 21.6307 7.61929 22.75 9 22.75ZM9 19.75C8.72386 19.75 8.5 19.9739 8.5 20.25C8.5 20.5261 8.72386 20.75 9 20.75C9.27614 20.75 9.5 20.5261 9.5 20.25C9.5 19.9739 9.27614 19.75 9 19.75Z" fill="black"/>
<path fill-rule="evenodd" clip-rule="evenodd" d="M20.25 18.25C20.2499 18.25 20.2501 18.25 20.25 18.25H17.2498C16.6427 18.7061 16.25 19.4322 16.25 20.25C16.25 21.6307 17.3693 22.75 18.75 22.75C20.1307 22.75 21.25 21.6307 21.25 20.25C21.25 19.4322 20.8571 18.7061 20.25 18.25ZM18.75 19.75C18.4739 19.75 18.25 19.9739 18.25 20.25C18.25 20.5261 18.4739 20.75 18.75 20.75C19.0261 20.75 19.25 20.5261 19.25 20.25C19.25 19.9739 19.0261 19.75 18.75 19.75Z" fill="black"/>
<path d="M17.2498 18.25H20.25C20.0434 18.0948 19.8122 17.9709 19.563 17.8852C19.48 17.8566 19.395 17.8323 19.3082 17.8126C19.1287 17.7716 18.9419 17.75 18.75 17.75C18.1871 17.75 17.6676 17.936 17.2498 18.25Z" fill="black"/>
<path fill-rule="evenodd" clip-rule="evenodd" d="M7.5 18.25C7.67955 18.1151 7.87775 18.0038 8.09012 17.9208C8.12167 17.9084 8.15352 17.8967 8.18568 17.8856C8.18939 17.8844 8.1931 17.8831 8.19682 17.8818C8.21784 17.8747 8.23898 17.8678 8.26025 17.8613C8.23522 17.869 8.21036 17.8771 8.18568 17.8856C8.15352 17.8967 8.12167 17.9084 8.09012 17.9208C7.82256 18.0254 7.57742 18.1747 7.36394 18.3596C7.4079 18.3216 7.45344 18.285 7.5 18.25Z" fill="black"/>
<path d="M7.5 18.25H10.5002C10.0824 17.936 9.56291 17.75 9 17.75C8.82741 17.75 8.65891 17.7675 8.49616 17.8008C8.41606 17.8172 8.33736 17.8374 8.26025 17.8613C8.23898 17.8678 8.21784 17.8747 8.19682 17.8818C8.1931 17.8831 8.18939 17.8844 8.18568 17.8856C8.15352 17.8967 8.12167 17.9084 8.09012 17.9208C7.87775 18.0038 7.67955 18.1151 7.5 18.25Z" fill="black"/>
<circle cx="18" cy="6" r="6" fill="#6200EE"/>
<path d="M18.7266 3.29297V9H17.7852V4.41016L16.3906 4.88281V4.10547L18.6133 3.29297H18.7266Z" fill="white"/>
</svg>
