<svg width="24" height="24" viewBox="0 0 24 24" fill="none" xmlns="http://www.w3.org/2000/svg">
<path fill-rule="evenodd" clip-rule="evenodd" d="M7.5 5.5V19.5H16.5V5.5H7.5ZM7 4C6.44772 4 6 4.44772 6 5V20C6 20.5523 6.44772 21 7 21H17C17.5523 21 18 20.5523 18 20V5C18 4.44772 17.5523 4 17 4H7Z" fill="white"/>
<path fill-rule="evenodd" clip-rule="evenodd" d="M15 7.5C15 7.77614 14.7761 8 14.5 8H9.5C9.22386 8 9 7.77614 9 7.5C9 7.22386 9.22386 7 9.5 7H14.5C14.7761 7 15 7.22386 15 7.5Z" fill="white"/>
<path fill-rule="evenodd" clip-rule="evenodd" d="M15 10.5C15 10.7761 14.7761 11 14.5 11H9.5C9.22386 11 9 10.7761 9 10.5C9 10.2239 9.22386 10 9.5 10H14.5C14.7761 10 15 10.2239 15 10.5Z" fill="white"/>
<path fill-rule="evenodd" clip-rule="evenodd" d="M15 13.5C15 13.7761 14.7761 14 14.5 14H9.5C9.22386 14 9 13.7761 9 13.5C9 13.2239 9.22386 13 9.5 13H14.5C14.7761 13 15 13.2239 15 13.5Z" fill="white"/>
</svg>
